<svg version="1.1" id="Capa_1" xmlns="http://www.w3.org/2000/svg" xmlns:xlink="http://www.w3.org/1999/xlink" x="0px" y="0px"
	 viewBox="0 0 21 21" style="enable-background:new 0 0 21 21;" width="21" height="21" xml:space="preserve">
<style type="text/css">
	.st0{fill:#130D25;}
</style>
<path class="st0" d="M20.2,12c0.5,0,0.8-0.4,0.8-0.8V5.8c0-1.8-1.5-3.3-3.3-3.3H3.3C1.5,2.5,0,4,0,5.8v9.5c0,1.8,1.5,3.3,3.3,3.3
	h14.4c1.8,0,3.3-1.5,3.3-3.3c0-0.5-0.4-0.8-0.8-0.8c-0.5,0-0.8,0.4-0.8,0.8c0,0.9-0.7,1.6-1.6,1.6H3.3c-0.9,0-1.6-0.7-1.6-1.6V5.9
	l7.1,4.4c0.5,0.3,1.1,0.5,1.7,0.5c0.6,0,1.2-0.2,1.7-0.5l7.1-4.4v5.2C19.4,11.6,19.7,12,20.2,12z M11.4,9c-0.5,0.3-1.2,0.3-1.7,0
	L2.3,4.4c0.3-0.2,0.6-0.3,1-0.3h14.4c0.4,0,0.7,0.1,1,0.3L11.4,9z"/>
</svg>
