<svg version="1.1" id="Capa_1" xmlns="http://www.w3.org/2000/svg" xmlns:xlink="http://www.w3.org/1999/xlink" x="0px" y="0px"
	 viewBox="0 0 21 21" style="enable-background:new 0 0 21 21;" width="21" height="21" xml:space="preserve">
<style type="text/css">
	.st0{clip-path:url(#SVGID_2_);}
	.st1{fill:#130D25;}
</style>
<g>
	<defs>
		<rect id="SVGID_1_" width="21" height="21"/>
	</defs>
	<clipPath id="SVGID_2_">
		<use xlink:href="#SVGID_1_"  style="overflow:visible;"/>
	</clipPath>
	<g class="st0">
		<path class="st1" d="M10.5,18.1c-0.6,0-6.2,0-7.8-0.4c-1.1-0.3-2-1.2-2.3-2.3C0,13.8,0,10.6,0,10.5c0-0.1,0-3.3,0.4-4.9
			c0,0,0,0,0,0c0.3-1.1,1.2-2,2.3-2.3c0,0,0,0,0,0c1.6-0.4,7.2-0.4,7.8-0.4c0.6,0,6.2,0,7.8,0.4c1.1,0.3,2,1.2,2.3,2.3
			C21,7.2,21,10.4,21,10.5c0,0,0,0.2,0,0.6c0,0.4-0.4,0.8-0.8,0.8c0,0,0,0,0,0c-0.5,0-0.8-0.4-0.8-0.8c0-0.3,0-0.5,0-0.5
			c0-0.9-0.1-3.3-0.4-4.4c-0.1-0.6-0.6-1-1.1-1.1c-1.2-0.3-5.7-0.4-7.4-0.4c-1.7,0-6.2,0.1-7.4,0.4C2.6,5.1,2.2,5.5,2,6.1
			c-0.3,1.2-0.4,3.6-0.4,4.4c0,0,0,3.1,0.4,4.4c0.1,0.5,0.6,1,1.1,1.1c1.2,0.3,5.7,0.4,7.4,0.4c1.7,0,6.2-0.1,7.4-0.4
			c0.5-0.1,1-0.6,1.1-1.1c0.1-0.4,0.6-0.7,1-0.6c0.4,0.1,0.7,0.6,0.6,1c-0.3,1.1-1.2,2-2.3,2.3c0,0,0,0,0,0
			C16.7,18.1,11.1,18.1,10.5,18.1z M10.1,13.9l3.5-2c0.5-0.3,0.8-0.8,0.8-1.4c0-0.6-0.3-1.1-0.8-1.4l-3.5-2C9.6,6.8,9,6.8,8.5,7
			C8,7.3,7.7,7.9,7.7,8.4v4.1c0,0.6,0.3,1.1,0.8,1.4c0.3,0.1,0.5,0.2,0.8,0.2C9.5,14.1,9.8,14.1,10.1,13.9z M12.7,10.5l-3.4,2v-4
			L12.7,10.5z"/>
	</g>
</g>
</svg>
