<svg xmlns="http://www.w3.org/2000/svg" xmlns:xlink="http://www.w3.org/1999/xlink" width="21" height="21"><defs><path id="a" d="M.6.6h19.8v19.8H.6z"/></defs><clipPath id="b"><use xlink:href="#a" overflow="visible"/></clipPath><g clip-path="url(#b)"><path d="M18.9 13.4V3.7c0-.9-.7-1.5-1.5-1.5H3.7c-.9 0-1.5.7-1.5 1.5v13.6c0 .9.7 1.5 1.5 1.5h8v-6.7H10c-.4 0-.8-.3-.8-.8 0-.4.3-.8.8-.8h1.7v-2c0-1.7 1.4-3.1 3.1-3.1h.4c.4 0 .8.3.8.8 0 .4-.3.8-.8.8h-.4c-.9 0-1.5.7-1.5 1.5v2.1H15c.4 0 .8.3.8.8 0 .4-.3.8-.8.8h-1.7v6.7h4.1c.9 0 1.5-.7 1.5-1.5 0-.4.3-.8.8-.8.4 0 .8.3.8.8 0 1.7-1.4 3.1-3.1 3.1H3.7C2 20.5.6 19.1.6 17.4V3.7C.6 2 2 .6 3.7.6h13.6c1.7 0 3.1 1.4 3.1 3.1v9.7c0 .4-.3.8-.8.8-.4 0-.7-.3-.7-.8z" fill="#130d25"/></g></svg>