<svg xmlns="http://www.w3.org/2000/svg" xmlns:xlink="http://www.w3.org/1999/xlink" width="21" height="21"><defs><path id="a" d="M.4.6h19.8v19.8H.4z"/></defs><clipPath id="b"><use xlink:href="#a" overflow="visible"/></clipPath><g clip-path="url(#b)"><path d="M14.4 20.4H6.2C3 20.4.4 17.8.4 14.6V6.4C.4 3.2 3 .6 6.2.6h8.3c3.2 0 5.8 2.6 5.8 5.8v7.5c0 .4-.3.8-.8.8s-.8-.3-.8-.8V6.4c0-2.3-1.9-4.2-4.2-4.2H6.2C3.8 2.1 1.9 4 1.9 6.4v8.3c0 2.3 1.9 4.2 4.2 4.2h8.3c1.3 0 2.5-.6 3.4-1.7.3-.3.7-.4 1.1-.1.3.3.4.7.1 1.1-.5.7-1.2 1.3-2 1.7-.8.3-1.6.5-2.6.5zm1.2-9.9c0-2.9-2.4-5.3-5.3-5.3S5 7.6 5 10.5s2.4 5.3 5.3 5.3 5.3-2.4 5.3-5.3zm-1.5 0c0 2.1-1.7 3.8-3.8 3.8-2.1 0-3.8-1.7-3.8-3.8 0-2.1 1.7-3.8 3.8-3.8 2.1 0 3.8 1.7 3.8 3.8zm.8-5.4c0 .4.3.8.8.8.4 0 .8-.3.8-.8 0-.4-.3-.8-.8-.8-.4 0-.8.4-.8.8z" fill="#130d25"/></g></svg>