<svg xmlns="http://www.w3.org/2000/svg" width="100" height="110"><path d="M7 84.5c-3.7 0-6.7-3-6.7-6.7V32.3a6.7 6.7 0 0113.4 0v45.4c.1 3.7-2.9 6.8-6.7 6.8zm86.5-2.4c-3.7 0-6.7-3-6.7-6.7V34.6a6.7 6.7 0 0113.4 0v40.7c.1 3.8-2.9 6.8-6.7 6.8zm-51.9-1.5c-3.7 0-6.7-3-6.7-6.7V36.1a6.7 6.7 0 0113.4 0v37.8c.1 3.7-2.9 6.7-6.7 6.7zm17.3 6.8c-3.7 0-6.7-3-6.7-6.7V29.4a6.7 6.7 0 0113.4 0v51.3c.1 3.7-2.9 6.7-6.7 6.7zm-34.6 22.7c-3.7 0-6.7-3-6.7-6.7V6.7a6.7 6.7 0 0113.4 0v96.7c.1 3.7-2.9 6.7-6.7 6.7zm51.9 0c-3.7 0-6.7-3-6.7-6.7V6.7a6.7 6.7 0 0113.4 0v96.7c.1 3.7-2.9 6.7-6.7 6.7z" fill="#fff"/></svg>