<svg xmlns="http://www.w3.org/2000/svg" width="21" height="21"><path d="M10.5 20.8c-1.6 0-3.3-.4-4.7-1.1l-4.5 1c-.3.1-.6 0-.8-.2-.2-.2-.3-.5-.2-.8l1-4.4C.4 13.8 0 12.1 0 10.4 0 7.6 1.1 5 3.1 3.1c2-2 4.6-3.1 7.4-3.1 2.8 0 5.4 1.1 7.4 3.1S21 7.7 21 10.5c0 2.1-.6 4.1-1.8 5.8-.3.4-.8.5-1.1.2-.4-.3-.5-.8-.2-1.1 1-1.5 1.5-3.1 1.5-4.9 0-2.3-.9-4.5-2.6-6.2-1.7-1.7-3.9-2.6-6.2-2.6-4.9 0-8.8 3.9-8.9 8.8 0 1.5.4 3 1.2 4.4.1.1.1.3 0 .5l-.8 3.5 3.6-.9c.2 0 .4 0 .6.1 1.3.7 2.7 1.1 4.2 1.1 1.6 0 3.2-.4 4.5-1.3.4-.2.9-.1 1.1.3.2.4.1.9-.3 1.1-1.5 1-3.4 1.5-5.3 1.5zM8.2 6.2c-.2-.4-.4-.4-.6-.4h-.4c-.2 0-.4.1-.7.3-.2.2-.8.8-.8 2s.9 2.3 1 2.5c.1.2 1.7 2.7 4.1 3.6 2 .8 2.4.6 2.9.6.4 0 1.4-.6 1.6-1.1.2-.6.2-1 .1-1.1-.1-.1-.2-.2-.5-.3l-1.6-.8c-.2-.1-.4-.1-.5.1-.2.2-.6.8-.8 1-.1.2-.3.2-.5.1s-1-.4-1.9-1.2c-.7-.7-1.2-1.5-1.4-1.8-.1-.2 0-.4.1-.5.1-.1.3-.2.4-.4.1-.1.2-.2.2-.4.1-.1.1-.3 0-.4 0-.1-.5-1.3-.7-1.8" fill="#130d25"/></svg>