<svg xmlns="http://www.w3.org/2000/svg" xmlns:xlink="http://www.w3.org/1999/xlink" width="21" height="21"><defs><path id="a" d="M0 0h21v21H0z"/></defs><clipPath id="b"><use xlink:href="#a" overflow="visible"/></clipPath><g clip-path="url(#b)"><path d="M10.5 18.1c-.6 0-6.2 0-7.8-.4-1.1-.3-2-1.2-2.3-2.3-.4-1.6-.4-4.8-.4-4.9 0-.1 0-3.3.4-4.9.3-1.1 1.2-2 2.3-2.3 1.6-.4 7.2-.4 7.8-.4.6 0 6.2 0 7.8.4 1.1.3 2 1.2 2.3 2.3.4 1.6.4 4.8.4 4.9v.6c0 .4-.4.8-.8.8-.5 0-.8-.4-.8-.8v-.5c0-.9-.1-3.3-.4-4.4-.1-.6-.6-1-1.1-1.1-1.2-.3-5.7-.4-7.4-.4-1.7 0-6.2.1-7.4.4-.5 0-.9.4-1.1 1-.3 1.2-.4 3.6-.4 4.4 0 0 0 3.1.4 4.4.1.5.6 1 1.1 1.1 1.2.3 5.7.4 7.4.4 1.7 0 6.2-.1 7.4-.4.5-.1 1-.6 1.1-1.1.1-.4.6-.7 1-.6.4.1.7.6.6 1-.3 1.1-1.2 2-2.3 2.3-1.6.5-7.2.5-7.8.5zm-.4-4.2l3.5-2c.5-.3.8-.8.8-1.4 0-.6-.3-1.1-.8-1.4l-3.5-2C9.6 6.8 9 6.8 8.5 7c-.5.3-.8.9-.8 1.4v4.1c0 .6.3 1.1.8 1.4.3.1.5.2.8.2.2 0 .5 0 .8-.2zm2.6-3.4l-3.4 2v-4l3.4 2z" fill="#130d25"/></g></svg>