<svg version="1.1" id="Capa_1" xmlns="http://www.w3.org/2000/svg" xmlns:xlink="http://www.w3.org/1999/xlink" x="0px" y="0px"
	 viewBox="0 0 21 21" style="enable-background:new 0 0 21 21;" width="21" height="21" xml:space="preserve">
<style type="text/css">
	.st0{clip-path:url(#SVGID_2_);}
	.st1{fill:#130D25;}
</style>
<g>
	<defs>
		<rect id="SVGID_1_" x="0.6" y="0.6" width="19.8" height="19.8"/>
	</defs>
	<clipPath id="SVGID_2_">
		<use xlink:href="#SVGID_1_"  style="overflow:visible;"/>
	</clipPath>
	<g class="st0">
		<path class="st1" d="M18.9,13.4V3.7c0-0.9-0.7-1.5-1.5-1.5H3.7c-0.9,0-1.5,0.7-1.5,1.5v13.6c0,0.9,0.7,1.5,1.5,1.5h8v-6.7H10
			c-0.4,0-0.8-0.3-0.8-0.8c0-0.4,0.3-0.8,0.8-0.8h1.7V8.5c0-1.7,1.4-3.1,3.1-3.1h0.4c0.4,0,0.8,0.3,0.8,0.8c0,0.4-0.3,0.8-0.8,0.8
			h-0.4c-0.9,0-1.5,0.7-1.5,1.5v2.1H15c0.4,0,0.8,0.3,0.8,0.8c0,0.4-0.3,0.8-0.8,0.8h-1.7v6.7h4.1c0.9,0,1.5-0.7,1.5-1.5
			c0-0.4,0.3-0.8,0.8-0.8c0.4,0,0.8,0.3,0.8,0.8c0,1.7-1.4,3.1-3.1,3.1H3.7c-1.7,0-3.1-1.4-3.1-3.1V3.7C0.6,2,2,0.6,3.7,0.6h13.6
			c1.7,0,3.1,1.4,3.1,3.1v9.7c0,0.4-0.3,0.8-0.8,0.8C19.2,14.2,18.9,13.9,18.9,13.4z"/>
	</g>
</g>
</svg>
