<svg version="1.1" id="Capa_1" xmlns="http://www.w3.org/2000/svg" xmlns:xlink="http://www.w3.org/1999/xlink" x="0px" y="0px"
	 viewBox="0 0 21 21" style="enable-background:new 0 0 21 21;" width="21" height="21" xml:space="preserve">
<style type="text/css">
	.st0{clip-path:url(#SVGID_2_);}
	.st1{fill:#130D25;}
</style>
<g>
	<defs>
		<rect id="SVGID_1_" x="0.4" y="0.6" width="19.8" height="19.8"/>
	</defs>
	<clipPath id="SVGID_2_">
		<use xlink:href="#SVGID_1_"  style="overflow:visible;"/>
	</clipPath>
	<g class="st0">
		<path class="st1" d="M14.4,20.4H6.2c-3.2,0-5.8-2.6-5.8-5.8V6.4c0-3.2,2.6-5.8,5.8-5.8h8.3c3.2,0,5.8,2.6,5.8,5.8v7.5
			c0,0.4-0.3,0.8-0.8,0.8s-0.8-0.3-0.8-0.8V6.4c0-2.3-1.9-4.2-4.2-4.2H6.2C3.8,2.1,1.9,4,1.9,6.4v8.3c0,2.3,1.9,4.2,4.2,4.2h8.3
			c1.3,0,2.5-0.6,3.4-1.7c0.3-0.3,0.7-0.4,1.1-0.1c0.3,0.3,0.4,0.7,0.1,1.1c-0.5,0.7-1.2,1.3-2,1.7C16.2,20.2,15.4,20.4,14.4,20.4z
			 M15.6,10.5c0-2.9-2.4-5.3-5.3-5.3C7.4,5.2,5,7.6,5,10.5c0,2.9,2.4,5.3,5.3,5.3C13.2,15.8,15.6,13.4,15.6,10.5z M14.1,10.5
			c0,2.1-1.7,3.8-3.8,3.8c-2.1,0-3.8-1.7-3.8-3.8c0-2.1,1.7-3.8,3.8-3.8C12.4,6.7,14.1,8.4,14.1,10.5z M14.9,5.1
			c0,0.4,0.3,0.8,0.8,0.8c0.4,0,0.8-0.3,0.8-0.8c0-0.4-0.3-0.8-0.8-0.8C15.3,4.3,14.9,4.7,14.9,5.1z"/>
	</g>
</g>
</svg>
