<svg version="1.1" id="Capa_1" xmlns="http://www.w3.org/2000/svg" xmlns:xlink="http://www.w3.org/1999/xlink" x="0px" y="0px"
	 width="100" height="110" viewBox="0 0 100 110" style="enable-background:new 0 0 100 110;" xml:space="preserve">
<style type="text/css">
	.st0{fill:#FFFFFF;}
</style>
<g>
	<g id="Logo">
		<g>
			<path class="st0" d="M7,84.5c-3.7,0-6.7-3-6.7-6.7V32.3c0-3.7,3-6.7,6.7-6.7c3.7,0,6.7,3,6.7,6.7v45.4
				C13.8,81.4,10.8,84.5,7,84.5z"/>
		</g>
		<g>
			<path class="st0" d="M93.5,82.1c-3.7,0-6.7-3-6.7-6.7V34.6c0-3.7,3-6.7,6.7-6.7c3.7,0,6.7,3,6.7,6.7v40.7
				C100.3,79.1,97.3,82.1,93.5,82.1z"/>
		</g>
		<g>
			<path class="st0" d="M41.6,80.6c-3.7,0-6.7-3-6.7-6.7V36.1c0-3.7,3-6.7,6.7-6.7c3.7,0,6.7,3,6.7,6.7v37.8
				C48.4,77.6,45.4,80.6,41.6,80.6z"/>
		</g>
		<g>
			<path class="st0" d="M58.9,87.4c-3.7,0-6.7-3-6.7-6.7V29.4c0-3.7,3-6.7,6.7-6.7c3.7,0,6.7,3,6.7,6.7v51.3
				C65.7,84.4,62.7,87.4,58.9,87.4z"/>
		</g>
		<g>
			<path class="st0" d="M24.3,110.1c-3.7,0-6.7-3-6.7-6.7V6.7c0-3.7,3-6.7,6.7-6.7c3.7,0,6.7,3,6.7,6.7v96.7
				C31.1,107.1,28.1,110.1,24.3,110.1z"/>
		</g>
		<g>
			<path class="st0" d="M76.2,110.1c-3.7,0-6.7-3-6.7-6.7V6.7c0-3.7,3-6.7,6.7-6.7c3.7,0,6.7,3,6.7,6.7v96.7
				C83,107.1,80,110.1,76.2,110.1z"/>
		</g>
	</g>
</g>
</svg>
