<?xml version="1.0" encoding="utf-8"?>
<!-- Generator: Adobe Illustrator 25.0.0, SVG Export Plug-In . SVG Version: 6.00 Build 0)  -->
<svg version="1.1" id="Capa_1" xmlns="http://www.w3.org/2000/svg" xmlns:xlink="http://www.w3.org/1999/xlink" x="0px" y="0px"
	 viewBox="0 0 21 21" style="enable-background:new 0 0 21 21;"  width="21" height="21" xml:space="preserve">
<style type="text/css">
	.st0{fill:#130D25;}
</style>
<path class="st0" d="M10.5,20.8L10.5,20.8c-1.6,0-3.3-0.4-4.7-1.1l-4.5,1c-0.3,0.1-0.6,0-0.8-0.2c-0.2-0.2-0.3-0.5-0.2-0.8l1-4.4
	C0.4,13.8,0,12.1,0,10.4c0,0,0,0,0,0C0,7.6,1.1,5,3.1,3.1c2-2,4.6-3.1,7.4-3.1c2.8,0,5.4,1.1,7.4,3.1c2,2,3.1,4.6,3.1,7.4
	c0,2.1-0.6,4.1-1.8,5.8c-0.3,0.4-0.8,0.5-1.1,0.2c-0.4-0.3-0.5-0.8-0.2-1.1c1-1.5,1.5-3.1,1.5-4.9c0-2.3-0.9-4.5-2.6-6.2
	c-1.7-1.7-3.9-2.6-6.2-2.6c-4.9,0-8.8,3.9-8.9,8.8c0,0,0,0,0,0c0,1.5,0.4,3,1.2,4.4C3,15,3,15.2,2.9,15.4l-0.8,3.5L5.7,18
	c0.2,0,0.4,0,0.6,0.1c1.3,0.7,2.7,1.1,4.2,1.1h0c1.6,0,3.2-0.4,4.5-1.3c0.4-0.2,0.9-0.1,1.1,0.3c0.2,0.4,0.1,0.9-0.3,1.1
	C14.3,20.3,12.4,20.8,10.5,20.8L10.5,20.8z M8.2,6.2C8,5.8,7.8,5.8,7.6,5.8H7.2C7,5.8,6.8,5.9,6.5,6.1c-0.2,0.2-0.8,0.8-0.8,2
	s0.9,2.3,1,2.5c0.1,0.2,1.7,2.7,4.1,3.6c2,0.8,2.4,0.6,2.9,0.6c0.4,0,1.4-0.6,1.6-1.1c0.2-0.6,0.2-1,0.1-1.1
	c-0.1-0.1-0.2-0.2-0.5-0.3c-0.2-0.1-1.4-0.7-1.6-0.8c-0.2-0.1-0.4-0.1-0.5,0.1c-0.2,0.2-0.6,0.8-0.8,1c-0.1,0.2-0.3,0.2-0.5,0.1
	c-0.2-0.1-1-0.4-1.9-1.2C8.9,10.8,8.4,10,8.2,9.7c-0.1-0.2,0-0.4,0.1-0.5C8.4,9.1,8.6,9,8.7,8.8c0.1-0.1,0.2-0.2,0.2-0.4
	C9,8.3,9,8.1,8.9,8C8.9,7.9,8.4,6.7,8.2,6.2"/>
</svg>
